HIERARCHY
ROOT Hips
{
	OFFSET 0.00000 0.00000 0.00000
	CHANNELS 6 Xposition Yposition Zposition Yrotation Zrotation Xrotation 
	JOINT Lumbar
	{
		OFFSET 0 0 0
		CHANNELS 3 Zrotation Xrotation Yrotation
		JOINT Neck
		{
			OFFSET 0.00 0.2701 0.00
			CHANNELS 3 Zrotation Xrotation Yrotation
			End Site
			{
				OFFSET 0.00 0.1379 0.00
			}
		}
		JOINT RightShoulder
		{
			OFFSET 0.0119 0.2289 0.1181
			CHANNELS 3 Zrotation Xrotation Yrotation
			JOINT RightElbow
			{
				OFFSET 0.00 -0.1475 0.00
				CHANNELS 2 Zrotation Yrotation
				JOINT RightWrist
				{
					OFFSET 0.00 -0.1605 0.00
					CHANNELS 2 Zrotation Xrotation
					End Site
					{
						OFFSET 0.0040 -0.1068 0.0006
					}
				}
			}
		}
		JOINT LeftShoulder
		{
			OFFSET 0.0119 0.2289 -0.1181
			CHANNELS 3 Zrotation Xrotation Yrotation
			JOINT LeftElbow
			{
				OFFSET 0.00 -0.1475 0.00
				CHANNELS 2 Zrotation Yrotation
				JOINT LeftWrist
				{
					OFFSET 0.00 -0.1605 0.00
					CHANNELS 2 Zrotation Xrotation
					End Site
					{
						OFFSET 0.0040 -0.1068 -0.0006
					}
				}
			}
		}
	}
	JOINT RightHip
	{
		OFFSET 0.0316 -0.0424 0.0458
		CHANNELS 3 Zrotation Xrotation Yrotation
		JOINT RightKnee
		{
			OFFSET 0.00 -0.2438 0.00
			CHANNELS 1 Zrotation
			JOINT RightAnkle
			{
				OFFSET 0.00 -0.2449 0.00
				CHANNELS 3 Zrotation Xrotation Yrotation
				End Site
				{
					OFFSET 0.1237 -0.0542 0.0051
				}
			}
		}
	}
	JOINT LeftHip
	{
		OFFSET 0.0316 -0.0424 -0.0458
		CHANNELS 3 Zrotation Xrotation Yrotation
		JOINT LeftKnee
		{
			OFFSET 0.00 -0.2438 0.00
			CHANNELS 1 Zrotation
			JOINT LeftAnkle
			{
				OFFSET 0.00 -0.2449 0.00
				CHANNELS 3 Zrotation Xrotation Yrotation
				End Site
				{
					OFFSET 0.1237 -0.0542 -0.0051
				}
			}
		}
	}
}
MOTION
Frames: 14
Frame Time: 0.02
0.00338 -0.00048 -0.00761 173.3136 -31.77362 -0.75058 43.3127 1.15426 -9.3543 -7.40626 -4.27412 -0.90605 -25.81351 -13.25464 2.39674 42.04114 89.9936 7.77672 -0.02986 -28.73729 17.42777 -0.24341 43.87952 -83.93646 12.09777 1.81544 32.65427 2.21355 -17.82297 -20.71912 -7.19582 -2.91368 -3.68333 32.3579 14.31211 12.2368 -19.59413 -9.47374 3.42606 4.03675
0.00269 -0.0006 -0.00849 173.2402 -31.71933 -0.51824 42.87804 1.24149 -8.84656 -7.32937 -4.26801 -0.95261 -25.58454 -13.42852 2.30881 41.65154 89.9013 7.95571 -0.0907 -28.73171 17.15687 0.06558 43.22605 -86.02973 13.19012 1.5618 32.37063 2.10068 -17.89617 -20.62957 -7.15969 -2.88005 -3.6656 33.09166 14.12503 12.12515 -21.20401 -9.4835 3.43784 4.04478
0.002 -0.00071 -0.00938 173.16686 -31.66582 -0.2862 42.44474 1.32856 -8.33931 -7.25252 -4.26154 -0.99904 -25.35561 -13.60183 2.22038 41.26169 89.8109 8.13465 -0.15101 -28.72654 16.88669 0.37339 42.57454 -88.11424 14.27862 1.30929 32.08825 1.98792 -17.96835 -20.54023 -7.12368 -2.84657 -3.64796 33.82578 13.9381 12.01432 -22.81113 -9.49306 3.4493 4.05265
0.00131 -0.00082 -0.01026 173.09365 -31.61179 -0.0545 42.01142 1.41554 -7.83295 -7.17584 -4.25539 -1.04546 -25.12723 -13.77518 2.13259 40.87304 89.7192 8.31318 -0.2116 -28.72101 16.6166 0.6814 41.92304 -90.2006 15.3675 1.0565 31.80557 1.87535 -18.04118 -20.45096 -7.08767 -2.81306 -3.63029 34.55771 13.75154 11.9031 -24.41652 -9.50276 3.46099 4.06063
0.00062 -0.00093 -0.01115 173.02044 -31.55674 0.17732 41.57671 1.50267 -7.3265 -7.09916 -4.2497 -1.09202 -24.89907 -13.9491 2.04562 40.48525 89.62485 8.49153 -0.27288 -28.71498 16.34587 0.99068 41.26966 -92.29681 16.46047 0.80242 31.52141 1.76277 -18.11539 -20.36146 -7.05153 -2.77938 -3.61255 35.28829 13.56494 11.79087 -26.02352 -9.51273 3.47311 4.06884
-8e-05 -0.00104 -0.01203 172.94684 -31.50646 0.4098 41.14638 1.58959 -6.81761 -7.02196 -4.24162 -1.13816 -24.66854 -14.12112 1.95413 40.09111 89.54269 8.6717 -0.33114 -28.71165 16.07688 1.29535 40.62216 -94.35674 17.53956 0.55316 31.24278 1.64964 -18.1833 -20.27246 -7.01578 -2.74631 -3.59511 36.02977 13.37732 11.68299 -27.6306 -9.52143 3.48322 4.07598
-0.00075 -0.00115 -0.01292 172.8741 -31.4467 0.64074 40.7078 1.67682 -6.31418 -6.94594 -4.23837 -1.1851 -24.443 -14.29678 1.87175 39.71007 89.43649 8.84808 -0.39537 -28.70275 15.80464 1.60896 39.96342 -96.48664 18.64513 0.29461 30.95351 1.53773 -18.2637 -20.18264 -6.97929 -2.71206 -3.57707 36.74852 13.19209 11.56651 -29.23652 -9.53264 3.49731 4.08524
-0.00145 -0.00127 -0.0138 172.8006 -31.39557 0.87303 40.27663 1.76378 -5.80576 -6.86874 -4.23064 -1.2313 -24.21293 -14.46907 1.78115 39.31717 89.35171 9.02781 -0.45417 -28.69921 15.53547 1.91435 39.31526 -98.55341 19.72676 0.04442 30.67371 1.42472 -18.3328 -20.09345 -6.94348 -2.67888 -3.55958 37.48822 13.00441 11.45789 -30.84211 -9.54161 3.50785 4.0926
-0.00217 -0.00137 -0.01467 172.72595 -31.35549 1.10743 39.85517 1.8504 -5.29062 -6.79038 -4.21746 -1.27661 -23.97679 -14.63738 1.67961 38.90843 89.29633 9.21239 -0.50599 -28.70141 15.26961 2.20969 38.67887 -100.53793 20.77761 -0.19477 30.40679 1.31018 -18.38708 -20.00546 -6.90851 -2.64708 -3.54279 38.25436 12.81456 11.3592 -32.45394 -9.54752 3.51353 4.09737
-0.00275 -0.0015 -0.01562 172.65726 -31.25334 1.33106 39.3798 1.93895 -4.81227 -6.71954 -4.23573 -1.32708 -23.77398 -14.82899 1.63832 38.58675 89.08152 9.37136 -0.59694 -28.66819 14.98336 2.56284 37.97125 -102.98044 22.00099 -0.49492 30.0697 1.20386 -18.5236 -19.91184 -6.86873 -2.60754 -3.52207 38.87095 12.63963 11.20434 -34.04993 -9.57008 3.54556 4.11625
-0.00363 -0.00158 -0.0164 172.57643 -31.28115 1.57651 39.01692 2.02345 -4.25765 -6.63233 -4.18764 -1.36667 -23.50198 -14.97119 1.47171 38.08419 89.19667 9.58281 -0.60601 -28.71115 14.74105 2.79402 37.41623 -104.46651 22.86328 -0.66796 29.87812 1.0806 -18.48864 -19.82929 -6.83911 -2.58424 -3.50958 39.80103 12.43174 11.16735 -35.66616 -9.55812 3.52306 4.10591
-0.00523 -0.00154 -0.01671 172.45779 -31.67704 1.88966 38.97553 2.0965 -3.48015 -6.50376 -3.95574 -1.37613 -23.02884 -14.97854 0.94374 37.05788 90.27901 9.95253 -0.38267 -28.95331 14.61249 2.68846 37.26424 -103.22314 22.70164 -0.47666 30.10956 0.90712 -17.96103 -19.78383 -6.83756 -2.60682 -3.52034 41.61701 12.14482 11.46212 -37.44719 -9.4453 3.34061 4.00994
-0.00713 -0.00146 -0.01685 172.32742 -32.20101 2.22306 39.0445 2.16552 -2.6287 -6.35801 -3.65762 -1.37475 -22.48849 -14.93614 0.29385 35.85571 91.68094 10.37221 -0.07857 -29.27372 14.52919 2.46156 37.26794 -101.04027 22.18385 -0.16075 30.4821 0.71748 -17.26509 -19.74811 -6.8462 -2.6455 -3.53927 43.74246 11.82283 11.87348 -39.22779 -9.29889 3.1053 3.88564
-0.00893 -0.0014 -0.01708 172.20581 -32.65923 2.54238 39.05485 2.23668 -1.81981 -6.21785 -3.39084 -1.37849 -21.98605 -14.91603 -0.28972 34.75102 92.89669 10.75986 0.18355 -29.56485 14.42982 2.29051 37.21121 -99.35391 21.85027 0.08818 30.77535 0.53745 -16.66093 -19.7037 -6.85007 -2.67595 -3.55403 45.71034 11.50926 12.22637 -40.93796 -9.1719 2.90092 3.77786
